<svg width="400" height="400" viewBox="0 0 40 40" fill="none" xmlns="http://www.w3.org/2000/svg">
<rect width="400" height="400" fill="#032D83"/>
<path d="M12.6688 13.0068C12.4757 13.0068 12.2982 13.0734 12.1587 13.184C12.1073 13.2247 9.78059 15.8325 9.78059 15.8325C9.78059 15.8325 7.49933 13.2653 7.45587 13.2247C7.30997 13.0897 7.11324 13.0068 6.89693 13.0068C6.44678 13.0068 6.08203 13.3655 6.08203 13.808V18.6872C6.08203 19.1292 6.44678 19.4882 6.89693 19.4882C7.34734 19.4882 7.71234 19.1292 7.71234 18.6872V15.9401C7.71234 15.9401 9.17387 17.5805 9.19471 17.6019C9.3429 17.7544 9.55132 17.85 9.78288 17.85C10.0284 17.85 10.2483 17.7435 10.3975 17.5747C10.4188 17.5503 11.8537 15.9347 11.8537 15.9347V18.6875C11.8537 19.1298 12.2187 19.4884 12.6688 19.4884C13.119 19.4884 13.484 19.1298 13.484 18.6875V13.808C13.484 13.3655 13.119 13.0068 12.6688 13.0068Z" fill="white"/>
<path d="M16.7576 17.8276C16.3074 17.8276 15.9424 17.4689 15.9424 17.0266C15.9424 16.5844 16.3074 16.2255 16.7576 16.2255C17.2077 16.2255 17.573 16.5844 17.573 17.0266C17.573 17.4689 17.2077 17.8276 16.7576 17.8276ZM19.2259 15.314C19.1832 14.9106 18.8367 14.5967 18.4153 14.5967C18.1871 14.5967 17.9812 14.6892 17.833 14.8382C17.5079 14.6836 17.1431 14.5967 16.7576 14.5967C15.3919 14.5967 14.2852 15.6843 14.2852 17.0266C14.2852 18.3684 15.3919 19.4566 16.7576 19.4566C17.1348 19.4566 17.4924 19.373 17.8121 19.2245C17.9611 19.3864 18.1759 19.4884 18.4153 19.4884C18.8655 19.4884 19.2307 19.1297 19.2307 18.6874V15.314H19.2259Z" fill="white"/>
<path d="M23.6747 17.0358L24.7507 15.9794C25.0689 15.6665 25.0689 15.1594 24.7507 14.8465C24.4324 14.5336 23.9162 14.5339 23.598 14.8465L22.5225 15.9024L21.4479 14.8458C21.4479 14.8455 21.4476 14.8455 21.4476 14.845C21.4474 14.8448 21.4474 14.8448 21.4471 14.8445L21.3841 14.7891C21.3726 14.7794 21.3609 14.7705 21.3487 14.7624C21.03 14.5352 20.5816 14.5626 20.2947 14.8448C19.9968 15.1376 19.9777 15.6007 20.2375 15.9156L21.3693 17.0348L20.2939 18.0906C20.2939 18.0909 20.2362 18.1537 20.2362 18.1537C19.9764 18.4681 19.9955 18.9315 20.2934 19.224C20.5915 19.5168 21.0625 19.5356 21.3828 19.2802L22.5218 18.1682L23.5967 19.2255C23.9149 19.5384 24.4309 19.5384 24.7494 19.2255C25.0676 18.9129 25.0676 18.4051 24.7494 18.0927L23.6747 17.0358Z" fill="white"/>
<path d="M28.2818 18.653C28.2818 19.0999 27.729 19.4621 27.047 19.4621C26.3651 19.4621 25.8125 19.0999 25.8125 18.653C25.8125 18.2069 26.3651 17.8447 27.047 17.8447C27.7288 17.8447 28.2818 18.2069 28.2818 18.653Z" fill="white"/>
<path d="M27.0473 18.653C27.7293 18.653 28.2821 18.2923 28.2821 17.8475C28.2821 17.4026 27.7293 17.042 27.0473 17.042C26.3653 17.042 25.8125 17.4026 25.8125 17.8475C25.8125 18.2923 26.3653 18.653 27.0473 18.653Z" fill="#ED1C24"/>
<path d="M24.2268 25.3249C23.7767 25.3249 23.4117 24.9663 23.4117 24.524C23.4117 24.0815 23.7767 23.7228 24.2268 23.7228C24.677 23.7228 25.042 24.0815 25.042 24.524C25.042 24.9663 24.677 25.3249 24.2268 25.3249ZM25.8843 20.5039C25.4342 20.5039 25.0692 20.8626 25.0692 21.3051V22.2392C24.8063 22.1454 24.5224 22.0941 24.2266 22.0941C22.8606 22.0941 21.7539 23.1817 21.7539 24.524C21.7539 25.8658 22.8606 26.954 24.2266 26.954C24.6038 26.954 24.9611 26.8703 25.2812 26.7219C25.2997 26.742 25.319 26.761 25.3396 26.7793C25.3399 26.7793 25.3399 26.7798 25.3401 26.7801C25.3602 26.7976 25.3808 26.8144 25.4026 26.8299C25.4039 26.8307 25.4047 26.8317 25.406 26.8325C25.4265 26.8469 25.4476 26.8604 25.4695 26.8734C25.472 26.8749 25.4743 26.8767 25.4769 26.878C25.4975 26.8894 25.5186 26.9001 25.5399 26.91C25.5442 26.912 25.5483 26.9141 25.5524 26.9158C25.5724 26.9247 25.593 26.9321 25.6136 26.9395C25.6197 26.9418 25.6253 26.944 25.6312 26.9458C25.651 26.9522 25.6713 26.9573 25.6916 26.9623C25.6988 26.9639 25.7059 26.9662 25.7133 26.9677C25.7336 26.972 25.7544 26.9745 25.7753 26.9771C25.7829 26.9784 25.79 26.9801 25.7976 26.9806C25.8261 26.9837 25.8548 26.9857 25.8838 26.9857C26.3342 26.9857 26.6992 26.6268 26.6992 26.1846V22.8111V21.3051C26.6997 20.8626 26.335 20.5039 25.8843 20.5039Z" fill="#ED1C24"/>
<path d="M28.5378 22.0938C28.1164 22.0938 27.7699 22.4077 27.7272 22.811H27.7227V26.1843C27.7227 26.6265 28.0877 26.9852 28.5378 26.9852C28.988 26.9852 29.353 26.6265 29.353 26.1843V22.811H29.3484C29.3057 22.4077 28.9592 22.0938 28.5378 22.0938Z" fill="#ED1C24"/>
<path d="M28.5381 21.7434C28.9884 21.7434 29.3535 21.3849 29.3535 20.9425C29.3535 20.5002 28.9884 20.1416 28.5381 20.1416C28.0877 20.1416 27.7227 20.5002 27.7227 20.9425C27.7227 21.3849 28.0877 21.7434 28.5381 21.7434Z" fill="#ED1C24"/>
<path d="M10.7467 24.73C10.5391 24.73 10.3505 24.807 10.2066 24.9323C10.2066 24.9323 10.2066 24.9323 10.2068 24.9323C10.2063 24.931 10.2058 24.9305 10.2053 24.93C9.9125 25.1895 9.5259 25.3486 9.1004 25.3486C8.18688 25.3486 7.44646 24.6209 7.44646 23.7229C7.44646 22.8249 8.18688 22.0977 9.1004 22.0977C9.50785 22.0977 9.87997 22.2428 10.1685 22.4828C10.1896 22.5006 10.2101 22.5199 10.2305 22.5384C10.371 22.6515 10.5507 22.7197 10.7467 22.7197C11.1969 22.7197 11.5619 22.361 11.5619 21.9187C11.5619 21.6966 11.4696 21.4955 11.3209 21.3504C11.3212 21.3509 11.3214 21.3512 11.3219 21.3514C11.3227 21.3504 11.3237 21.3499 11.3247 21.3494C10.7399 20.8194 9.95876 20.4961 9.10065 20.4961C7.28683 20.4961 5.81641 21.9408 5.81641 23.7234C5.81641 25.506 7.28683 26.951 9.10065 26.951C9.92979 26.951 10.6867 26.6485 11.2647 26.1501C11.2658 26.1493 11.2665 26.1483 11.2675 26.1478C11.4472 26.0006 11.5619 25.7792 11.5619 25.5311C11.5616 25.0886 11.1969 24.73 10.7467 24.73Z" fill="#ED1C24"/>
<path d="M18.6316 23.5178C18.7182 23.4896 18.811 23.4731 18.9076 23.4731C19.0321 23.4731 19.1496 23.499 19.2556 23.545C19.2609 23.5473 19.2698 23.5516 19.2805 23.5574C19.3224 23.5752 19.3616 23.5953 19.3946 23.6215C19.4124 23.6355 19.4277 23.6505 19.4419 23.6662C19.4551 23.6812 19.467 23.6965 19.4782 23.7128C19.48 23.7155 19.4823 23.7178 19.4841 23.7204C19.4881 23.7257 19.4917 23.7316 19.495 23.7377C19.5031 23.7504 19.5108 23.7638 19.5171 23.7776C19.5192 23.7827 19.5207 23.7877 19.5225 23.7928C19.5245 23.7994 19.5268 23.8058 19.5288 23.8121C19.5387 23.8429 19.5456 23.8754 19.5456 23.9095C19.5456 24.0622 19.4383 24.1901 19.2942 24.2264C19.2858 24.2277 19.2556 24.2318 19.2261 24.2351C19.221 24.2364 19.2159 24.2374 19.2108 24.2379C19.2093 24.2379 19.208 24.2374 19.2065 24.2374C19.1875 24.2399 19.1709 24.2417 19.1653 24.2417H19.1643H18.063C18.0802 23.9052 18.3123 23.6233 18.6316 23.5178ZM20.9037 26.0324C20.9021 26.0192 20.8999 26.0065 20.8976 25.994C20.8948 25.9765 20.8912 25.9589 20.8869 25.9416C20.8854 25.9355 20.8836 25.9287 20.8816 25.9221C20.8 25.631 20.5293 25.417 20.2072 25.417C20.1053 25.417 20.009 25.4386 19.9215 25.4768C19.9195 25.4778 19.9175 25.4785 19.9154 25.4793C19.9116 25.4811 19.9083 25.4823 19.9047 25.4839L19.8051 25.5195C19.6063 25.5906 19.3313 25.6567 18.9841 25.6257C18.415 25.5751 18.0909 25.2063 18.0909 25.0408H20.2291C20.2596 25.0408 20.2898 25.0388 20.3193 25.0355C20.5593 25.0202 20.769 24.8975 20.8981 24.714C21.0412 24.5404 21.1134 24.2936 21.1134 23.972C21.1134 23.6083 21.0109 23.2733 20.8063 22.9657C20.4151 22.3864 19.8021 22.0967 18.9658 22.0967C18.232 22.0967 17.6202 22.3198 17.1299 22.7664C16.6393 23.2128 16.3945 23.8083 16.3945 24.5528C16.3945 25.144 16.5841 25.6791 16.9626 26.1577C17.1555 26.4058 17.4242 26.6056 17.7704 26.7563C18.1161 26.9068 18.5116 26.9823 18.9569 26.9823C19.6475 26.9823 20.15 26.9047 20.4683 26.7522C20.5809 26.7075 20.6787 26.6353 20.7534 26.5435C20.7583 26.538 20.7626 26.5316 20.7672 26.5258C20.7827 26.5057 20.7972 26.4851 20.8096 26.4635C20.8101 26.4625 20.8106 26.4617 20.8112 26.4607C20.8727 26.358 20.9088 26.2385 20.9088 26.1107C20.9088 26.0891 20.9065 26.0677 20.9042 26.0464C20.9042 26.0415 20.9042 26.037 20.9037 26.0324Z" fill="#ED1C24"/>
<path d="M15.6343 22.1636C15.539 22.1268 15.4358 22.106 15.327 22.106C15.3113 22.106 15.296 22.1077 15.2803 22.1082C15.2645 22.1077 15.2492 22.106 15.2332 22.106C14.7208 22.106 14.2737 22.3754 14.0266 22.777C13.9684 22.3906 13.6306 22.0938 13.2214 22.0938C12.8 22.0938 12.4535 22.4077 12.4108 22.811C12.408 22.8382 12.4062 22.8667 12.4062 22.8947V26.184C12.4062 26.6263 12.7712 26.9849 13.2214 26.9849C13.6716 26.9849 14.0366 26.6263 14.0366 26.184V24.5229C14.0366 24.4386 14.0495 24.3572 14.0734 24.2805C14.1791 23.9421 14.4994 23.6958 14.8784 23.6958C14.9363 23.6958 14.993 23.7014 15.0477 23.7126C15.0853 23.72 15.1222 23.7312 15.1582 23.7434C15.2129 23.7546 15.2696 23.7601 15.3273 23.7601C15.7924 23.7601 16.1691 23.3898 16.1691 22.9328C16.1691 22.5833 15.9472 22.2844 15.6343 22.1636Z" fill="#ED1C24"/>
<path d="M32.5241 23.7749V23.7081H33.4602V23.7035C33.8705 23.6616 34.19 23.3207 34.19 22.9067C34.19 22.4926 33.8705 22.152 33.4602 22.1101V22.106H32.5241V21.3048C32.5241 20.8623 32.1591 20.5039 31.7089 20.5039C31.2588 20.5039 30.8938 20.8626 30.8938 21.3048V22.1057H30.8506C30.4004 22.1057 30.0352 22.4644 30.0352 22.9067C30.0352 23.3492 30.4004 23.7078 30.8506 23.7078H30.8938V25.3582V25.3806C30.8938 25.3816 30.8938 25.3829 30.8938 25.3839C30.8938 26.2733 31.6271 26.9939 32.5317 26.9939C32.867 26.9939 33.1786 26.8942 33.4381 26.7244C33.4765 26.7066 33.5126 26.6853 33.5469 26.6606C33.6051 26.6195 33.6564 26.5694 33.6991 26.5124C33.7851 26.3981 33.8367 26.2575 33.8367 26.1047C33.8367 25.7242 33.523 25.4164 33.1366 25.4164C33.0329 25.4164 32.9353 25.439 32.8469 25.4782L32.8454 25.4772C32.8156 25.4917 32.7826 25.5003 32.7475 25.5003C32.6245 25.5003 32.5246 25.4019 32.5246 25.2812V25.2276V23.7749H32.5241Z" fill="#ED1C24"/>
</svg>
