<svg xmlns="http://www.w3.org/2000/svg" width="500" height="500"><circle data-name="Эллипс 1" cx="250" cy="250" r="250" fill="#273659"/><path d="M81 218.907a129.465 129.465 0 0 1 26.783-2.72q32.449 0 32.449 31.079 0 34.328-30.188 34.327a29.95 29.95 0 0 1-12.974-3.123v19.065H81v-78.628zm16.075 45.61a25.926 25.926 0 0 0 12.92 3.375q14.36 0 14.36-20.752 0-17.631-15.876-17.63a61.982 61.982 0 0 0-11.4.856v34.151zm91.825 11.208a31.042 31.042 0 0 1-18.311 5.868q-23.331 0-23.355-20.375 0-19.493 27.653-19.493a68.613 68.613 0 0 1 12.969 1.259v-5.037q0-8.79-12.423-8.79a98.029 98.029 0 0 0-23.155 3.123v-13a98.269 98.269 0 0 1 23.305-3.1q28.373 0 28.373 21.558V285.9l-15.031-10.074zm-13.988-22.793q-11.578 0-11.578 8.11 0 8.714 9.689 8.714a24.335 24.335 0 0 0 14.908-5.037v-10.553a63.987 63.987 0 0 0-12.97-1.259zm32-36.544h17.019l16.075 47.1 15.7-47.1h16.721l-24.4 65.356v16.194h-16.071l-.05-16.194-24.994-65.356zm85.269 2.9a129.466 129.466 0 0 1 26.858-2.67q32.423 0 32.423 31.079 0 34.328-30.187 34.327a30.04 30.04 0 0 1-12.969-3.1v19.041h-16.125v-78.68zm16.075 45.661a25.936 25.936 0 0 0 12.92 3.374q14.385 0 14.36-20.752 0-17.63-15.876-17.63a62.245 62.245 0 0 0-11.4.856v34.152zm57.368 3.425a27.914 27.914 0 0 0-5.714-.579h-1.342a27.914 27.914 0 0 0-5.714.579v13.071a27.359 27.359 0 0 0 5.714.579h1.366a27.133 27.133 0 0 0 5.69-.579v-13.074zm71.257 0a27.924 27.924 0 0 0-5.715-.579h-1.341a27.924 27.924 0 0 0-5.715.579v13.071a27.369 27.369 0 0 0 5.715.579h1.49a27.14 27.14 0 0 0 5.69-.579v-13.074h-.124zm-36.672-25.916H389.9q-7.578 0-7.454-6.548t12.92-6.926a60.551 60.551 0 0 1 21.044 3.7v-13.6a67.863 67.863 0 0 0-20.622-3.1q-28.3 0-28.3 20.552 0 19.619 19.4 19.619h11.532q6.981 0 6.982 6.548t-10.361 6.851a65.617 65.617 0 0 1-22.088-3.526v13.6a73.235 73.235 0 0 0 21.492 3.022q26.932-.026 26.932-20.576 0-19.62-21.218-19.62h.05z" fill="#fff" fill-rule="evenodd"/></svg>