<svg width="400" height="400" viewBox="0 0 40 40" fill="none" xmlns="http://www.w3.org/2000/svg">
<rect width="400" height="400" fill="#4B5959"/>
<path d="M16.498 23.4932H9.49609V30.4793H16.498V23.4932Z" fill="#FF8900"/>
<path d="M16.498 23.4932L9.49609 30.4793V23.4932H16.498Z" fill="#FFA700"/>
<path d="M23.5019 23.4932H16.5V30.4793H23.5019V23.4932Z" fill="#FFB83A"/>
<path d="M23.5019 23.4932L16.5 30.4793V23.4932H23.5019Z" fill="#FFCA49"/>
<path d="M23.5019 16.5068H16.5V23.4924H23.5019V16.5068Z" fill="#B8BA3C"/>
<path d="M23.5019 16.5068L16.5 23.4924V16.5068H23.5019Z" fill="#CACB4B"/>
<path d="M30.5019 16.5068H23.5V23.4924H30.5019V16.5068Z" fill="#71BB3E"/>
<path d="M30.5019 16.5068L23.5 23.4924V16.5068H30.5019Z" fill="#8DCC4E"/>
<path d="M30.5019 9.52051H23.5V16.506H30.5019V9.52051Z" fill="#4C9D33"/>
<path d="M30.5019 9.52051L23.5 16.5066V9.52051H30.5019Z" fill="#5FB640"/>
</svg>
